PathFileType	4	(X/Y/Z)	/Users/itak/Documents/Research/Walk-IL/dataset/trc/00399_00012.trc
DataRate	CameraRate	NumFrames	NumMarkers	Units	OrigDataRate	OrigDataStartFrame	OrigNumFrames
100.000000	100.000000	4	53	mm	100.000000	640	732
Frame#	Time	RPSI			LPSI			L3			STRN			T10			C7			CLAV			RBAK			LBAK			LSHO			LUPA			LAEL			LAOL			LWTS			LWPS			LFRA			LIFD			LHPS			LHTS			RSHO			RUPA			RAEL			RAOL			RWTS			RWPS			RFRA			RIFD			RHTS			RHPS			RBHD			LFHD			RFHD			LBHD			LHIP			RHIP			RASI			LASI			LKNE			LTHI			LANK			LTIP			LTOE			LMT1			LMT5			LHEE			RKNE			RTHI			RANK			RTIP			RTOE			RMT1			RMT5			RHEE			
		X1	Y1	Z1	X2	Y2	Z2	X3	Y3	Z3	X4	Y4	Z4	X5	Y5	Z5	X6	Y6	Z6	X7	Y7	Z7	X8	Y8	Z8	X9	Y9	Z9	X10	Y10	Z10	X11	Y11	Z11	X12	Y12	Z12	X13	Y13	Z13	X14	Y14	Z14	X15	Y15	Z15	X16	Y16	Z16	X17	Y17	Z17	X18	Y18	Z18	X19	Y19	Z19	X20	Y20	Z20	X21	Y21	Z21	X22	Y22	Z22	X23	Y23	Z23	X24	Y24	Z24	X25	Y25	Z25	X26	Y26	Z26	X27	Y27	Z27	X28	Y28	Z28	X29	Y29	Z29	X30	Y30	Z30	X31	Y31	Z31	X32	Y32	Z32	X33	Y33	Z33	X34	Y34	Z34	X35	Y35	Z35	X36	Y36	Z36	X37	Y37	Z37	X38	Y38	Z38	X39	Y39	Z39	X40	Y40	Z40	X41	Y41	Z41	X42	Y42	Z42	X43	Y43	Z43	X44	Y44	Z44	X45	Y45	Z45	X46	Y46	Z46	X47	Y47	Z47	X48	Y48	Z48	X49	Y49	Z49	X50	Y50	Z50	X51	Y51	Z51	X52	Y52	Z52	X53	Y53	Z53	

641	6.4	-873.32763671875	989.4225463867188	130.4899597167969	-742.6943969726562	980.3832397460938	123.0551605224609	-808.4256591796875	1054.639404296875	124.0982666015625	-804.7991943359375	1216.421997070312	352.8269348144531	-799.596435546875	1157.36865234375	108.7303924560547	-786.1201171875	1406.906982421875	139.0341949462891	-799.856689453125	1334.014770507812	296.9881286621094	-851.1414184570312	1260.832397460938	94.02638244628906	-684.1085815429688	1371.723266601562	128.3524169921875	-639.701416015625	1393.109375	216.5818023681641	-567.083251953125	1276.423706054688	196.7987365722656	-541.9046020507812	1079.4462890625	226.1709899902344	-603.1110229492188	1054.806274414062	173.0446319580078	-578.9692993164062	871.1034545898438	330.292236328125	-520.3198852539062	856.2885131835938	275.6398620605469	-532.7531127929688	977.2506713867188	246.8359375	-575.1976318359375	689.9979248046875	335.6439514160156	-528.060546875	770.6312255859375	293.4058532714844	-558.4675903320312	774.1801147460938	349.0746154785156	-944.1205444335938	1390.364013671875	183.0119171142578	-999.505859375	1326.36572265625	161.9159393310547	-1054.224731445312	1066.985473632812	165.1881103515625	-960.7046508789062	1050.490234375	168.2971496582031	-1079.420532226562	868.7384033203125	315.3883361816406	-1127.186645507812	856.941650390625	258.1787414550781	-1082.34130859375	1007.312255859375	190.3147430419922	-1103.21337890625	697.3651123046875	329.0048522949219	-1113.870849609375	767.7098388671875	337.0682067871094	-1137.4150390625	769.684326171875	270.8338317871094	-887.2348022460938	1595.0078125	194.7613220214844	-730.2828979492188	1602.451782226562	314.5229187011719	-851.10302734375	1606.6669921875	323.5499877929688	-728.8976440429688	1587.061157226562	165.3302307128906	-627.0275268554688	967.148193359375	204.9108581542969	-986.0571899414062	964.7137451171875	215.8713073730469	-927.3953857421875	974.1620483398438	348.8672180175781	-662.5146484375	967.394287109375	324.9647521972656	-645.9402465820312	476.2363891601562	234.8413543701172	-635.5866088867188	618.749267578125	233.912109375	-694.5027465820312	41.99449920654297	142.3600463867188	-659.0366821289062	246.1556091308594	182.9986267089844	-753.2706298828125	44.03154754638672	356.5623474121094	-786.5123901367188	43.97320938110352	275.8096618652344	-680.3453369140625	41.9808349609375	269.4944763183594	-750.82763671875	38.7350959777832	103.2618560791016	-960.340087890625	475.8945007324219	223.3463592529297	-979.9830322265625	736.078125	283.8119812011719	-926.1973266601562	56.79746627807617	145.1700592041016	-947.6214599609375	349.43505859375	222.5320281982422	-880.5068969726562	39.05395126342773	330.89599609375	-942.5280151367188	46.01707458496094	227.0192413330078	-843.5191650390625	44.15875244140625	257.6844787597656	-867.2033081054688	46.00711441040039	77.71826171875	
642	6.41	-873.4163208007812	989.3814697265625	130.3737030029297	-742.786865234375	980.3623657226562	122.8302001953125	-808.6044311523438	1054.616333007812	123.8104705810547	-804.7268676757812	1216.421264648438	352.7057189941406	-799.7166748046875	1157.353271484375	108.4998168945312	-786.166015625	1406.890625	138.8379364013672	-799.804443359375	1334.035766601562	296.8253784179688	-851.2744140625	1260.842041015625	93.85021209716797	-684.0901489257812	1371.69482421875	128.1554260253906	-639.663330078125	1393.054443359375	216.3028106689453	-566.989013671875	1276.319946289062	196.4466400146484	-541.79443359375	1079.380859375	225.6323089599609	-603.2015380859375	1054.748901367188	172.6192321777344	-578.5479736328125	871.1310424804688	329.9724731445312	-520.1271362304688	856.2610473632812	275.1168518066406	-532.7520141601562	977.1704711914062	246.2494049072266	-574.4055786132812	690.03515625	335.6064147949219	-527.7509765625	770.6326293945312	292.996337890625	-557.946533203125	774.2261962890625	348.8338623046875	-944.1072387695312	1390.393798828125	182.9143524169922	-999.5399780273438	1326.39794921875	161.8903503417969	-1054.49755859375	1067.027099609375	165.6226654052734	-960.9921264648438	1050.474975585938	168.6083374023438	-1079.428588867188	869.3472900390625	316.7762756347656	-1127.203735351562	857.4100952148438	259.9316711425781	-1082.610473632812	1007.479187011719	191.0694885253906	-1103.649169921875	698.3528442382812	331.6921081542969	-1114.160278320312	768.7408447265625	339.2320861816406	-1137.920043945312	770.4724731445312	273.0994262695312	-887.140869140625	1595.034912109375	194.5813293457031	-730.2979125976562	1602.412963867188	314.4436950683594	-851.1849975585938	1606.621215820312	323.3294677734375	-728.8363647460938	1587.088623046875	165.2181549072266	-627.095947265625	967.1901245117188	204.5548706054688	-987.1096801757812	964.5678100585938	215.0061340332031	-927.412841796875	974.16650390625	348.7593383789062	-662.4951782226562	967.3991088867188	324.6546936035156	-645.9766235351562	476.2192687988281	234.7156524658203	-635.6508178710938	618.759033203125	233.7934265136719	-694.465576171875	42.01409912109375	142.3476104736328	-659.0653686523438	246.1333770751953	182.9668273925781	-753.264892578125	44.03798675537109	356.5624084472656	-786.5097045898438	43.97177124023438	275.80810546875	-680.3540649414062	41.98470687866211	269.4878540039062	-750.8392333984375	38.7193489074707	103.2617340087891	-960.4282836914062	475.8887939453125	223.2849273681641	-980.0713500976562	736.0838012695312	283.7259826660156	-926.2190551757812	56.78132247924805	145.1542816162109	-947.6777954101562	349.4081420898438	222.5010070800781	-880.478759765625	39.05768966674805	330.8941955566406	-942.4995727539062	45.99935150146484	227.0325775146484	-843.5215454101562	44.16403579711914	257.668212890625	-867.2108764648438	45.98466491699219	77.70778656005859	
643	6.42	-873.4859008789062	989.3416137695312	130.2714538574219	-742.8848876953125	980.345947265625	122.5978012084961	-808.7736206054688	1054.579833984375	123.5449447631836	-804.6336669921875	1216.42431640625	352.5807800292969	-799.87646484375	1157.343994140625	108.2247848510742	-786.2439575195312	1406.87451171875	138.6305541992188	-799.7633056640625	1334.058837890625	296.6412353515625	-851.4527587890625	1260.863891601562	93.67692565917969	-684.1107788085938	1371.65966796875	127.9196701049805	-639.6192016601562	1393.000732421875	215.9866790771484	-566.9249267578125	1276.19580078125	196.0790557861328	-541.71142578125	1079.31640625	225.1202239990234	-603.3092041015625	1054.667236328125	172.23046875	-578.1629028320312	871.173095703125	329.7156677246094	-519.9708862304688	856.2423706054688	274.6547546386719	-532.7698364257812	977.1024169921875	245.6970367431641	-573.6441040039062	690.1085205078125	335.6827392578125	-527.486083984375	770.6304321289062	292.6744384765625	-557.4228515625	774.310302734375	348.6714782714844	-944.124267578125	1390.428100585938	182.8390960693359	-999.5994262695312	1326.440063476562	161.9067687988281	-1054.787231445312	1067.078247070312	166.0546417236328	-961.28955078125	1050.476684570312	168.8885955810547	-1079.409301757812	869.9371337890625	318.0338134765625	-1127.21826171875	857.8593139648438	261.6102905273438	-1082.862060546875	1007.646667480469	191.8191528320312	-1103.98828125	699.2888793945312	334.1918029785156	-1114.399291992188	769.70751953125	341.2710876464844	-1138.390380859375	771.2752075195312	275.2783203125	-887.0606079101562	1595.070434570312	194.4113616943359	-730.3104248046875	1602.372314453125	314.357666015625	-851.252685546875	1606.574829101562	323.11962890625	-728.7980346679688	1587.119018554688	165.0945129394531	-627.17578125	967.190673828125	204.1942291259766	-987.8447875976562	964.2811889648438	213.8449554443359	-927.4153442382812	974.1709594726562	348.6607360839844	-662.4823608398438	967.3992919921875	324.3236083984375	-646.0135498046875	476.202880859375	234.6039123535156	-635.7413330078125	618.7704467773438	233.6594848632812	-694.4179077148438	42.03926849365234	142.3312225341797	-659.08984375	246.1121673583984	182.935791015625	-753.2576293945312	44.04304885864258	356.5621948242188	-786.5064697265625	43.9686279296875	275.8052978515625	-680.3612670898438	41.98870086669922	269.4806518554688	-750.85009765625	38.70508575439453	103.2613525390625	-960.5247192382812	475.8877258300781	223.2037353515625	-980.1746215820312	736.0918579101562	283.6265869140625	-926.2432250976562	56.76086044311523	145.1394348144531	-947.7426147460938	349.3871765136719	222.4503631591797	-880.4530029296875	39.06343078613281	330.88818359375	-942.4605712890625	45.97355270385742	227.0525360107422	-843.5252075195312	44.17280578613281	257.6458740234375	-867.222412109375	45.96076583862305	77.69695281982422	
644	6.43	-873.5457153320312	989.3056640625	130.1774291992188	-742.99462890625	980.3331298828125	122.3563079833984	-808.933349609375	1054.531616210938	123.2975311279297	-804.5247192382812	1216.42626953125	352.4418334960938	-800.0775756835938	1157.340698242188	107.9117736816406	-786.3472900390625	1406.859252929688	138.4158477783203	-799.7447509765625	1334.082275390625	296.4395751953125	-851.6657104492188	1260.894653320312	93.51011657714844	-684.1727294921875	1371.61865234375	127.6446228027344	-639.568115234375	1392.9501953125	215.6413726806641	-566.9017333984375	1276.05615234375	195.6889953613281	-541.670654296875	1079.252197265625	224.6309814453125	-603.4229125976562	1054.56396484375	171.8780364990234	-577.8230590820312	871.2294921875	329.5152893066406	-519.8442993164062	856.2340698242188	274.26123046875	-532.7969360351562	977.0470581054688	245.1851806640625	-572.9669189453125	690.2152099609375	335.8529052734375	-527.2633056640625	770.6273193359375	292.4450378417969	-556.9110107421875	774.4365844726562	348.5740356445312	-944.1704711914062	1390.46435546875	182.7845916748047	-999.68359375	1326.488159179688	161.963623046875	-1055.098266601562	1067.137329101562	166.4857788085938	-961.6009521484375	1050.490478515625	169.1398315429688	-1079.372802734375	870.51025390625	319.179443359375	-1127.25244140625	858.2869873046875	263.1989440917969	-1083.096435546875	1007.808288574219	192.5657196044922	-1104.218505859375	700.1530151367188	336.4963684082031	-1114.57763671875	770.5946655273438	343.1827087402344	-1138.81494140625	772.0690307617188	277.353515625	-886.9967651367188	1595.11474609375	194.2549743652344	-730.3162841796875	1602.328247070312	314.2646179199219	-851.2968139648438	1606.529541015625	322.9270629882812	-728.777099609375	1587.15185546875	164.9604797363281	-627.2723999023438	967.1554565429688	203.8387145996094	-988.1629638671875	963.944091796875	212.7437133789062	-927.404541015625	974.1776123046875	348.5753479003906	-662.4773559570312	967.399169921875	323.98291015625	-646.0482788085938	476.1896667480469	234.5066223144531	-635.861328125	618.7877807617188	233.4913177490234	-694.3648071289062	42.06731796264648	142.3114471435547	-659.1121215820312	246.0913696289062	182.9046020507812	-753.2484130859375	44.04646682739258	356.5614929199219	-786.50341796875	43.96294784545898	275.801025390625	-680.3662719726562	41.99308395385742	269.4731750488281	-750.8602905273438	38.69156265258789	103.2604370117188	-960.6293334960938	475.891357421875	223.1054077148438	-980.2749633789062	736.0997924804688	283.5271301269531	-926.2684936523438	56.73535919189453	145.1260070800781	-947.8159790039062	349.3728332519531	222.3804168701172	-880.432861328125	39.07091903686523	330.8761901855469	-942.4158935546875	45.9403190612793	227.0770721435547	-843.530517578125	44.18526077270508	257.6175231933594	-867.239990234375	45.93599700927734	77.6859130859375	
